<svg width="261" height="39" viewBox="0 0 261 39" fill="none" xmlns="http://www.w3.org/2000/svg">
<path d="M36.6415 24.0754H15.758C15.071 24.0754 14.7073 23.6267 14.7073 22.7294V19.5388C14.7073 18.6414 15.071 18.1927 15.758 18.1927H26.7407C29.2866 18.1927 31.3072 16.8965 31.3072 13.0578C31.3072 9.51824 29.2866 7.92293 26.7407 7.92293H18.0928V34.744C18.0928 35.6414 17.7291 36.0901 17.0017 36.0901H3.14068C2.4537 36.0901 2.09 35.6414 2.09 34.744V3.38628C2.09 2.53877 2.4537 2.09009 3.14068 2.09009H37.6921C42.986 2.09009 47.1483 6.17807 47.1483 13.2572C47.1483 20.3863 42.5819 24.0754 36.6415 24.0754Z" fill="white"/>
<path d="M104.208 36.0901H90.3878C89.3776 36.0901 88.4481 35.6913 87.7207 34.744L75.3924 19.1265C74.9479 18.5781 69.7759 19.8433 69.3886 17.454V14.5869C69.3886 14.5869 75.1933 14.6531 75.9207 14.6531H81.457C84.0029 14.6531 85.2961 13.4068 85.2961 11.2631C85.2961 9.11942 84.0029 7.92293 81.457 7.92293H72.4453V34.744C72.4453 35.6414 72.0816 36.0901 71.3542 36.0901H57.4932C56.7658 36.0901 56.4021 35.6414 56.4021 34.744V3.38628C56.4021 2.53877 56.7658 2.09009 57.4932 2.09009L92.8125 2.09009C97.7023 2.09009 101.38 5.62968 101.38 10.7646C101.38 16.398 97.8235 19.5886 93.4995 20.3863L104.653 34.4948C104.855 34.6942 104.936 35.0432 104.936 35.2924C104.936 35.6913 104.693 36.0901 104.208 36.0901Z" fill="white"/>
<path d="M191.888 36.0901H177.381C176.855 36.0901 176.613 35.8907 176.613 35.442V7.92293H164.813C164.287 7.92293 164.045 7.77337 164.045 7.37455V2.73818C164.045 2.2895 164.287 2.09009 164.813 2.09009L204.456 2.09009C204.981 2.09009 205.224 2.2895 205.224 2.73818V7.37455C205.224 7.77337 204.981 7.92293 204.456 7.92293H192.616V35.442C192.616 35.8907 192.373 36.0901 191.888 36.0901Z" fill="white"/>
<path d="M244.754 36.0901H224.953C217.073 36.0901 211.658 28.7118 211.658 19.0901C211.658 9.21912 216.952 2.09009 224.953 2.09009H244.754C252.796 2.09009 258.09 9.36868 258.09 19.0901C258.09 28.6619 252.715 36.0901 244.754 36.0901ZM241.966 21.1341V15.7001C241.966 9.5681 240.713 7.92293 237.197 7.92293H231.702C228.509 7.92293 227.256 9.6678 227.256 15.7001V21.1341C227.256 27.8643 228.63 30.2074 231.702 30.2074H237.197C240.511 30.2074 241.966 27.9141 241.966 21.1341Z" fill="white"/>
<path d="M138.047 8.02156L141.503 2.09009C155.007 2.09009 157.253 11.028 157.601 20.2483H141.503C141.502 18.1995 142.378 8.02156 138.047 8.02156Z" fill="white"/>
<path d="M144.292 36.0901H124.49C116.61 36.0901 111.195 28.7118 111.195 19.0901C111.195 9.21912 116.489 2.09009 124.49 2.09009H141.503L138.047 8.02156C137.65 7.95342 137.214 7.92293 136.735 7.92293H131.239C128.047 7.92293 126.794 9.6678 126.794 15.7001V21.1341C126.794 27.8643 128.168 30.2074 131.239 30.2074H136.735C140.049 30.2074 141.503 27.9141 141.503 21.1341V20.2483H157.601C157.601 30.2074 151.929 36.0901 144.292 36.0901Z" fill="white"/>
<path d="M37.6925 1.04517C40.6208 1.04527 43.2737 2.18279 45.1847 4.32349C47.0901 6.45792 48.1935 9.5138 48.1935 13.2571C48.1935 17.0528 46.9709 20.0487 44.8468 22.093C42.7309 24.1292 39.8256 25.1203 36.6418 25.1204H19.1378V34.7444C19.1378 35.307 19.0281 35.9226 18.632 36.4114C18.2018 36.9421 17.5916 37.1349 17.0021 37.135H3.14078C2.55243 37.135 1.95449 36.9299 1.53726 36.4006C1.15549 35.9162 1.04512 35.3082 1.04507 34.7444L1.04507 3.38599C1.04511 2.83527 1.16022 2.23795 1.54605 1.76196C1.96249 1.24841 2.5542 1.04517 3.14078 1.04517L37.6925 1.04517ZM92.8127 1.04517C98.277 1.04523 102.425 5.05045 102.425 10.7649C102.425 13.8139 101.457 16.2749 99.841 18.0852C98.6111 19.463 97.0382 20.4249 95.3136 20.9963L105.45 33.8196C105.67 34.0618 105.796 34.3364 105.866 34.5588C105.946 34.8086 105.981 35.0651 105.981 35.2922C105.981 35.6897 105.862 36.1337 105.566 36.4993C105.248 36.8904 104.769 37.135 104.208 37.135H90.3878C89.0665 37.135 87.8307 36.5958 86.9005 35.3909V35.3918L74.7697 20.0237C74.6613 20.0176 74.5169 20.0135 74.3293 20.0149C74.0988 20.0166 73.8082 20.0241 73.4904 20.0295V34.7444C73.4903 35.307 73.3806 35.9226 72.9845 36.4114C72.5543 36.9421 71.9441 37.1349 71.3546 37.135H57.4933C56.9037 37.135 56.2938 36.9423 55.8634 36.4114C55.4672 35.9226 55.3576 35.3071 55.3576 34.7444V3.38599C55.3576 2.83619 55.4719 2.23142 55.8722 1.75122C56.3016 1.23628 56.9051 1.04517 57.4933 1.04517H92.8127ZM204.456 1.04517C204.817 1.04519 205.305 1.10757 205.708 1.44556C206.152 1.81792 206.269 2.32927 206.269 2.73853V7.37427C206.269 7.804 206.121 8.31965 205.631 8.65845C205.233 8.93325 204.77 8.968 204.456 8.96802H193.66V35.4417C193.66 35.8497 193.545 36.3504 193.121 36.7209C192.726 37.0659 192.245 37.135 191.888 37.135H177.381C177.021 37.135 176.531 37.0727 176.128 36.7346C175.684 36.3623 175.568 35.8509 175.568 35.4417V8.96802H164.813C164.499 8.96801 164.036 8.93323 163.638 8.65845C163.147 8.31965 163 7.804 163 7.37427V2.73853C163 2.32939 163.116 1.81789 163.56 1.44556C163.963 1.10747 164.452 1.04517 164.813 1.04517H204.456ZM244.754 1.04517C249.124 1.04517 252.755 3.03581 255.267 6.30884C257.763 9.56238 259.135 14.0497 259.135 19.0901C259.135 28.9631 253.534 37.135 244.754 37.135H224.953C216.256 37.135 210.612 29.0151 210.612 19.0901C210.612 13.9777 211.983 9.48765 214.477 6.25024C216.986 2.99273 220.61 1.04517 224.953 1.04517L244.754 1.04517ZM131.239 8.96802C130.528 8.96802 130.014 9.06625 129.631 9.24048C129.268 9.40562 128.969 9.66289 128.716 10.0862C128.164 11.0084 127.839 12.6916 127.839 15.7004V21.134C127.839 24.4778 128.189 26.5293 128.796 27.72C129.085 28.2874 129.416 28.6257 129.773 28.8323C130.135 29.042 130.604 29.1624 131.239 29.1624H136.735C137.446 29.1624 137.977 29.0389 138.387 28.8206C138.786 28.6077 139.141 28.2675 139.445 27.7112C140.088 26.5382 140.458 24.502 140.458 21.134V20.2317C140.46 19.0807 140.673 16.1962 140.361 13.4866C140.204 12.1288 139.926 10.9478 139.492 10.136C139.077 9.35846 138.615 9.06665 138.047 9.06665H137.958L137.871 9.052C137.547 8.99636 137.171 8.96802 136.735 8.96802H131.239ZM231.701 8.96802C230.99 8.96804 230.476 9.06612 230.093 9.24048C229.73 9.40562 229.432 9.66291 229.179 10.0862C228.627 11.0084 228.301 12.6915 228.301 15.7004V21.134C228.301 24.4777 228.651 26.5293 229.258 27.72C229.547 28.2875 229.879 28.6257 230.236 28.8323C230.598 29.0419 231.066 29.1623 231.701 29.1624H237.197C237.908 29.1624 238.439 29.0388 238.849 28.8206C239.248 28.6077 239.603 28.2676 239.907 27.7112C240.55 26.5383 240.921 24.5022 240.921 21.134V15.7004C240.921 12.6318 240.592 10.9705 240.02 10.0745C239.546 9.33272 238.796 8.96802 237.197 8.96802H231.701ZM140.459 20.2795C140.459 20.2763 140.459 20.274 140.459 20.2727C140.459 20.2694 140.458 20.2637 140.458 20.262L140.459 20.2795ZM141.503 19.72C141.433 19.7256 141.365 19.7354 141.3 19.7502C141.369 19.7423 141.437 19.7405 141.503 19.7434V19.72ZM19.1378 17.1477H26.7404C27.8488 17.1477 28.6858 16.8657 29.2482 16.3167C29.8053 15.7728 30.2619 14.8016 30.2619 13.0579C30.2619 11.4865 29.8172 10.4922 29.2316 9.8938C28.6451 9.29465 27.7955 8.96802 26.7404 8.96802H19.1378V17.1477ZM73.4904 13.5852C74.64 13.5971 75.6493 13.6077 75.9211 13.6077H81.4572C82.5735 13.6076 83.2459 13.3344 83.631 12.9866C83.9992 12.6539 84.2511 12.1206 84.2511 11.2629C84.2511 10.4063 83.9996 9.89143 83.6388 9.57251C83.2563 9.2344 82.5834 8.96804 81.4572 8.96802H73.4904V13.5852ZM158.646 20.2483C158.646 25.4227 157.17 29.6456 154.597 32.5911C152.014 35.5468 148.394 37.1349 144.292 37.135H124.49C115.793 37.135 110.151 29.0151 110.151 19.0901C110.151 13.9777 111.521 9.48765 114.015 6.25024C116.524 2.99291 120.147 1.04517 124.49 1.04517H141.503C148.514 1.04517 152.819 3.38612 155.351 7.12622C157.82 10.7735 158.47 15.5727 158.645 20.2092L158.646 20.2288V20.2483Z" stroke="#462B00" stroke-opacity="0.79" stroke-width="2.09"/>
</svg>
